<mxfile host="app.diagrams.net" modified="2024-02-29T18:55:05.579Z" agent="Mozilla/5.0 (Windows NT 10.0; Win64; x64) AppleWebKit/537.36 (KHTML, like Gecko) Chrome/122.0.0.0 Safari/537.36" etag="hOIRDoT10Qst8PjzKNB0" version="24.0.0" type="device">
  <diagram id="C5RBs43oDa-KdzZeNtuy" name="Page-1">
    <mxGraphModel dx="700" dy="371" grid="1" gridSize="5" guides="1" tooltips="1" connect="1" arrows="1" fold="1" page="1" pageScale="1" pageWidth="827" pageHeight="1169" math="0" shadow="0">
      <root>
        <mxCell id="WIyWlLk6GJQsqaUBKTNV-0" />
        <mxCell id="WIyWlLk6GJQsqaUBKTNV-1" parent="WIyWlLk6GJQsqaUBKTNV-0" />
        <mxCell id="t59Q7sE8g6zwbIQ1o6Hy-1" value="&lt;span style=&quot;font-size: 19px;&quot;&gt;SPEECH TO TEXT&lt;/span&gt;&lt;div&gt;&lt;span style=&quot;font-size: 19px;&quot;&gt;(GUI - Based Application)&amp;nbsp;&amp;nbsp;&lt;/span&gt;&lt;/div&gt;" style="rounded=1;whiteSpace=wrap;html=1;fillColor=#dae8fc;gradientColor=#7ea6e0;strokeColor=#6c8ebf;" vertex="1" parent="WIyWlLk6GJQsqaUBKTNV-1">
          <mxGeometry x="300" y="70" width="180" height="80" as="geometry" />
        </mxCell>
        <mxCell id="t59Q7sE8g6zwbIQ1o6Hy-2" value="" style="endArrow=classic;html=1;rounded=0;" edge="1" parent="WIyWlLk6GJQsqaUBKTNV-1" target="t59Q7sE8g6zwbIQ1o6Hy-4">
          <mxGeometry width="50" height="50" relative="1" as="geometry">
            <mxPoint x="380" y="150" as="sourcePoint" />
            <mxPoint x="380" y="210.25808026713707" as="targetPoint" />
          </mxGeometry>
        </mxCell>
        <mxCell id="t59Q7sE8g6zwbIQ1o6Hy-4" value="&lt;div&gt;WELCOME PAGE&lt;/div&gt;" style="rounded=1;whiteSpace=wrap;html=1;fillColor=#ffcccc;strokeColor=#36393d;" vertex="1" parent="WIyWlLk6GJQsqaUBKTNV-1">
          <mxGeometry x="320" y="179.99808026713708" width="120" height="60" as="geometry" />
        </mxCell>
        <mxCell id="t59Q7sE8g6zwbIQ1o6Hy-6" value="" style="endArrow=classic;html=1;rounded=0;entryX=0.5;entryY=0;entryDx=0;entryDy=0;exitX=0.5;exitY=1;exitDx=0;exitDy=0;" edge="1" parent="WIyWlLk6GJQsqaUBKTNV-1" source="t59Q7sE8g6zwbIQ1o6Hy-4" target="t59Q7sE8g6zwbIQ1o6Hy-7">
          <mxGeometry width="50" height="50" relative="1" as="geometry">
            <mxPoint x="379.82" y="240.26" as="sourcePoint" />
            <mxPoint x="379.82" y="260" as="targetPoint" />
          </mxGeometry>
        </mxCell>
        <mxCell id="t59Q7sE8g6zwbIQ1o6Hy-7" value="&lt;div&gt;&lt;br&gt;&lt;/div&gt;INSTRUCTION&amp;nbsp;&lt;div&gt;PAGE(Pop-up )&amp;nbsp;&lt;/div&gt;&lt;div&gt;&lt;br&gt;&lt;/div&gt;" style="rounded=1;whiteSpace=wrap;html=1;fillColor=#e1d5e7;strokeColor=#9673a6;" vertex="1" parent="WIyWlLk6GJQsqaUBKTNV-1">
          <mxGeometry x="320" y="270" width="120" height="60" as="geometry" />
        </mxCell>
        <mxCell id="t59Q7sE8g6zwbIQ1o6Hy-8" value="" style="endArrow=classic;html=1;rounded=0;" edge="1" parent="WIyWlLk6GJQsqaUBKTNV-1">
          <mxGeometry width="50" height="50" relative="1" as="geometry">
            <mxPoint x="380" y="330" as="sourcePoint" />
            <mxPoint x="379.82" y="370" as="targetPoint" />
            <Array as="points">
              <mxPoint x="379.82" y="340" />
            </Array>
          </mxGeometry>
        </mxCell>
        <mxCell id="t59Q7sE8g6zwbIQ1o6Hy-12" value="&lt;div&gt;&lt;span style=&quot;background-color: initial;&quot;&gt;Drop down box to&amp;nbsp;&lt;/span&gt;&lt;br&gt;&lt;/div&gt;&lt;div&gt;select any language&amp;nbsp;&amp;nbsp;&lt;/div&gt;" style="rounded=1;whiteSpace=wrap;html=1;align=center;fillColor=#6a00ff;fontColor=#ffffff;strokeColor=#3700CC;" vertex="1" parent="WIyWlLk6GJQsqaUBKTNV-1">
          <mxGeometry x="320" y="370" width="120" height="60" as="geometry" />
        </mxCell>
        <mxCell id="t59Q7sE8g6zwbIQ1o6Hy-13" value="" style="endArrow=classic;html=1;rounded=0;" edge="1" parent="WIyWlLk6GJQsqaUBKTNV-1" target="t59Q7sE8g6zwbIQ1o6Hy-14">
          <mxGeometry width="50" height="50" relative="1" as="geometry">
            <mxPoint x="379.82" y="430" as="sourcePoint" />
            <mxPoint x="379.82" y="490.29092684659093" as="targetPoint" />
          </mxGeometry>
        </mxCell>
        <mxCell id="t59Q7sE8g6zwbIQ1o6Hy-14" value="&lt;div&gt;&lt;div style=&quot;text-align: left;&quot;&gt;&lt;ul&gt;&lt;li&gt;&lt;span style=&quot;font-size: 11px;&quot;&gt;recognition of selected language&amp;nbsp;&lt;/span&gt;&lt;/li&gt;&lt;li&gt;&lt;span style=&quot;font-size: 11px;&quot;&gt;recitation of the translated language&amp;nbsp;&lt;/span&gt;&lt;/li&gt;&lt;/ul&gt;&lt;/div&gt;&lt;/div&gt;" style="rounded=1;whiteSpace=wrap;html=1;strokeWidth=0;fillColor=#e51400;fontColor=#ffffff;strokeColor=#B20000;" vertex="1" parent="WIyWlLk6GJQsqaUBKTNV-1">
          <mxGeometry x="289.90999999999997" y="480" width="180.18" height="105" as="geometry" />
        </mxCell>
        <mxCell id="t59Q7sE8g6zwbIQ1o6Hy-15" value="" style="endArrow=classic;html=1;rounded=0;" edge="1" parent="WIyWlLk6GJQsqaUBKTNV-1">
          <mxGeometry width="50" height="50" relative="1" as="geometry">
            <mxPoint x="480" y="109.71000000000001" as="sourcePoint" />
            <mxPoint x="560" y="109.71000000000001" as="targetPoint" />
          </mxGeometry>
        </mxCell>
        <mxCell id="t59Q7sE8g6zwbIQ1o6Hy-16" value="Python based&amp;nbsp;" style="ellipse;whiteSpace=wrap;html=1;fillColor=#647687;fontColor=#ffffff;strokeColor=#314354;" vertex="1" parent="WIyWlLk6GJQsqaUBKTNV-1">
          <mxGeometry x="560" y="90" width="90" height="40" as="geometry" />
        </mxCell>
        <mxCell id="t59Q7sE8g6zwbIQ1o6Hy-17" value="" style="endArrow=classic;html=1;rounded=0;" edge="1" parent="WIyWlLk6GJQsqaUBKTNV-1">
          <mxGeometry width="50" height="50" relative="1" as="geometry">
            <mxPoint x="605" y="130" as="sourcePoint" />
            <mxPoint x="604.71" y="160" as="targetPoint" />
            <Array as="points" />
          </mxGeometry>
        </mxCell>
        <mxCell id="t59Q7sE8g6zwbIQ1o6Hy-18" value="&lt;font style=&quot;font-size: 10px;&quot;&gt;GUI module - Tkinter&amp;nbsp;&lt;/font&gt;" style="ellipse;whiteSpace=wrap;html=1;fillColor=#6d8764;fontColor=#ffffff;strokeColor=#3A5431;" vertex="1" parent="WIyWlLk6GJQsqaUBKTNV-1">
          <mxGeometry x="560" y="160" width="90" height="40" as="geometry" />
        </mxCell>
        <mxCell id="t59Q7sE8g6zwbIQ1o6Hy-19" style="edgeStyle=orthogonalEdgeStyle;rounded=0;orthogonalLoop=1;jettySize=auto;html=1;exitX=0.5;exitY=1;exitDx=0;exitDy=0;" edge="1" parent="WIyWlLk6GJQsqaUBKTNV-1" source="t59Q7sE8g6zwbIQ1o6Hy-16" target="t59Q7sE8g6zwbIQ1o6Hy-16">
          <mxGeometry relative="1" as="geometry" />
        </mxCell>
        <mxCell id="t59Q7sE8g6zwbIQ1o6Hy-21" value="" style="endArrow=classic;html=1;rounded=0;" edge="1" parent="WIyWlLk6GJQsqaUBKTNV-1">
          <mxGeometry width="50" height="50" relative="1" as="geometry">
            <mxPoint x="445" y="300" as="sourcePoint" />
            <mxPoint x="560" y="300" as="targetPoint" />
          </mxGeometry>
        </mxCell>
        <mxCell id="t59Q7sE8g6zwbIQ1o6Hy-22" value="check box for the user to read the information carefully" style="ellipse;whiteSpace=wrap;html=1;fillColor=#fff2cc;strokeColor=#d6b656;gradientColor=#ffd966;" vertex="1" parent="WIyWlLk6GJQsqaUBKTNV-1">
          <mxGeometry x="560" y="265" width="155" height="67.5" as="geometry" />
        </mxCell>
        <mxCell id="t59Q7sE8g6zwbIQ1o6Hy-23" value="" style="endArrow=classic;html=1;rounded=0;" edge="1" parent="WIyWlLk6GJQsqaUBKTNV-1">
          <mxGeometry width="50" height="50" relative="1" as="geometry">
            <mxPoint x="637.08" y="335" as="sourcePoint" />
            <mxPoint x="637.08" y="390" as="targetPoint" />
          </mxGeometry>
        </mxCell>
        <mxCell id="t59Q7sE8g6zwbIQ1o6Hy-24" value="Agree &amp;amp; continue&amp;nbsp;&lt;div&gt;button&lt;/div&gt;" style="ellipse;whiteSpace=wrap;html=1;fillColor=#f5f5f5;gradientColor=#b3b3b3;strokeColor=#666666;" vertex="1" parent="WIyWlLk6GJQsqaUBKTNV-1">
          <mxGeometry x="577.5" y="385" width="120" height="45" as="geometry" />
        </mxCell>
        <mxCell id="t59Q7sE8g6zwbIQ1o6Hy-25" value="" style="endArrow=classic;html=1;rounded=0;" edge="1" parent="WIyWlLk6GJQsqaUBKTNV-1">
          <mxGeometry width="50" height="50" relative="1" as="geometry">
            <mxPoint x="470.09" y="540" as="sourcePoint" />
            <mxPoint x="555.09" y="540" as="targetPoint" />
          </mxGeometry>
        </mxCell>
        <mxCell id="t59Q7sE8g6zwbIQ1o6Hy-26" value="&lt;ul&gt;&lt;li&gt;use of&amp;nbsp;🎙️ button&amp;nbsp;&lt;/li&gt;&lt;li&gt;use of&amp;nbsp;🔉 button&amp;nbsp;&amp;nbsp;&lt;/li&gt;&lt;/ul&gt;" style="ellipse;whiteSpace=wrap;html=1;fillColor=#e6d0de;gradientColor=#d5739d;strokeColor=#996185;" vertex="1" parent="WIyWlLk6GJQsqaUBKTNV-1">
          <mxGeometry x="555" y="520" width="140" height="55" as="geometry" />
        </mxCell>
      </root>
    </mxGraphModel>
  </diagram>
</mxfile>
